<?xml version="1.0" standalone="no"?>
<!DOCTYPE svg PUBLIC "-//W3C//DTD SVG 20010904//EN"
 "http://www.w3.org/TR/2001/REC-SVG-20010904/DTD/svg10.dtd">
<svg version="1.0" xmlns="http://www.w3.org/2000/svg"
 width="320.000000pt" height="320.000000pt" viewBox="0 0 320.000000 320.000000"
 preserveAspectRatio="xMidYMid meet">

<g transform="translate(0.000000,320.000000) scale(0.100000,-0.100000)"
fill="#000000" stroke="none">
<path d="M1450 3194 c-279 -34 -522 -120 -735 -262 -358 -238 -601 -605 -687
-1037 -32 -157 -32 -433 0 -590 132 -663 634 -1159 1297 -1281 139 -26 411
-26 550 0 663 122 1165 618 1297 1281 32 157 32 433 0 590 -86 432 -329 799
-687 1037 -173 114 -400 207 -600 243 -87 15 -363 28 -435 19z m162 -1571
c713 -713 759 -763 700 -763 -18 0 -1452 1427 -1452 1446 0 11 20 34 29 34 3
0 329 -323 723 -717z m716 218 l2 -492 -22 3 -23 3 -3 438 c-1 240 -4 437 -7
437 -3 0 -113 -108 -246 -241 -132 -132 -246 -238 -252 -236 -7 2 -13 13 -15
25 -3 16 60 84 268 292 150 149 277 269 283 267 9 -3 13 -133 15 -496z m-1174
-200 c255 -255 283 -291 229 -291 -10 0 -118 100 -240 222 l-223 223 0 -462
c0 -452 0 -462 -20 -468 -11 -3 -24 -3 -30 0 -6 4 -10 181 -10 509 0 490 2
526 30 526 3 0 122 -117 264 -259z"/>
</g>
</svg>
